<svg width="24" height="24" viewBox="0 0 24 24" fill="none" xmlns="http://www.w3.org/2000/svg">
<path fill-rule="evenodd" clip-rule="evenodd" d="M13 5.125C13.7625 5.125 14.494 5.42763 15.0332 5.9668C15.5724 6.50596 15.875 7.2375 15.875 8V11.125H20C20.4832 11.125 20.875 11.5168 20.875 12C20.875 12.4832 20.4832 12.875 20 12.875H15.875V16C15.875 16.7625 15.5724 17.494 15.0332 18.0332C14.494 18.5724 13.7625 18.875 13 18.875H11C10.2375 18.875 9.50596 18.5724 8.9668 18.0332C8.42763 17.494 8.125 16.7625 8.125 16V12.875H4C3.51675 12.875 3.125 12.4832 3.125 12C3.125 11.5168 3.51675 11.125 4 11.125H8.125V8C8.125 7.2375 8.42763 6.50596 8.9668 5.9668C9.50596 5.42763 10.2375 5.125 11 5.125H13Z" fill="#959BA0"/>
</svg>
