<svg width="24" height="24" viewBox="0 0 24 24" fill="none" xmlns="http://www.w3.org/2000/svg">
<path d="M21 2.125C21.0559 2.125 21.1119 2.12998 21.167 2.14062L21.1768 2.14258C21.1826 2.14379 21.1885 2.14516 21.1943 2.14648C21.2422 2.15732 21.2891 2.17247 21.335 2.19141C21.3441 2.19521 21.3533 2.19902 21.3623 2.20312C21.4554 2.24537 21.5427 2.30438 21.6191 2.38086C21.6953 2.45701 21.7537 2.54411 21.7959 2.63672C21.8 2.64573 21.8038 2.65489 21.8076 2.66406C21.8522 2.77144 21.875 2.88552 21.875 3V8C21.875 8.48325 21.4832 8.875 21 8.875C20.5168 8.875 20.125 8.48325 20.125 8V5.1123L14.083 11.1543C13.3099 11.9276 12.8752 12.9768 12.875 14.0703V21C12.875 21.4832 12.4832 21.875 12 21.875C11.5168 21.875 11.125 21.4832 11.125 21V14.0693C11.1255 12.5121 11.7437 11.0183 12.8447 9.91699L18.8867 3.875H16C15.5168 3.875 15.125 3.48325 15.125 3C15.125 2.51675 15.5168 2.125 16 2.125H21Z" fill="#959BA0"/>
<path d="M10 9.125C10.4832 9.125 10.875 9.51675 10.875 10V10.0098C10.875 10.493 10.4832 10.8848 10 10.8848C9.51675 10.8848 9.125 10.493 9.125 10.0098V10C9.125 9.51675 9.51675 9.125 10 9.125Z" fill="#959BA0"/>
<path d="M8 7.13477C8.48317 7.13477 8.87488 7.52662 8.875 8.00977V8.01953C8.875 8.50278 8.48325 8.89453 8 8.89453C7.51675 8.89453 7.125 8.50278 7.125 8.01953V8.00977C7.12512 7.52662 7.51683 7.13477 8 7.13477Z" fill="#959BA0"/>
<path d="M8 2.125C8.48325 2.125 8.875 2.51675 8.875 3C8.875 3.48325 8.48325 3.875 8 3.875H3.875V8C3.875 8.48325 3.48325 8.875 3 8.875C2.51675 8.875 2.125 8.48325 2.125 8V3C2.125 2.51675 2.51675 2.125 3 2.125H8Z" fill="#959BA0"/>
<path d="M6 5.125C6.48325 5.125 6.875 5.51675 6.875 6V6.00977C6.875 6.49301 6.48325 6.88477 6 6.88477C5.51675 6.88477 5.125 6.49301 5.125 6.00977V6C5.125 5.51675 5.51675 5.125 6 5.125Z" fill="#959BA0"/>
</svg>
