<svg width="24" height="24" viewBox="0 0 24 24" fill="none" xmlns="http://www.w3.org/2000/svg">
<path d="M12 15.125C12.7594 15.125 13.375 15.7406 13.375 16.5C13.375 17.2594 12.7594 17.875 12 17.875C11.2406 17.875 10.625 17.2594 10.625 16.5C10.625 15.7406 11.2406 15.125 12 15.125Z" fill="#959BA0"/>
<path fill-rule="evenodd" clip-rule="evenodd" d="M12 2.125C13.2968 2.125 14.5812 2.38069 15.7793 2.87695C16.9772 3.37322 18.0655 4.10069 18.9824 5.01758C19.8993 5.93447 20.6268 7.02275 21.123 8.2207C21.6193 9.41879 21.875 10.7032 21.875 12C21.875 13.2968 21.6193 14.5812 21.123 15.7793C20.6268 16.9773 19.8993 18.0655 18.9824 18.9824C18.0655 19.8993 16.9773 20.6268 15.7793 21.123C14.5812 21.6193 13.2968 21.875 12 21.875C10.7032 21.875 9.41879 21.6193 8.2207 21.123C7.02275 20.6268 5.93447 19.8993 5.01758 18.9824C4.10069 18.0655 3.37322 16.9772 2.87695 15.7793C2.38069 14.5812 2.125 13.2968 2.125 12C2.125 10.7032 2.38069 9.41879 2.87695 8.2207C3.37322 7.02275 4.10069 5.93447 5.01758 5.01758C5.93447 4.10069 7.02275 3.37321 8.2207 2.87695C9.41879 2.38069 10.7032 2.125 12 2.125ZM6.96191 5.62793C6.71512 5.82313 6.47827 6.0315 6.25488 6.25488C5.50041 7.00936 4.90148 7.90485 4.49316 8.89062C4.08486 9.87638 3.875 10.933 3.875 12C3.875 13.067 4.08486 14.1236 4.49316 15.1094C4.90148 16.0951 5.50041 16.9906 6.25488 17.7451C7.00936 18.4996 7.90486 19.0985 8.89062 19.5068C9.87638 19.9151 10.933 20.125 12 20.125C12.9614 20.125 13.8837 19.7433 14.5635 19.0635C15.2433 18.3837 15.625 17.4614 15.625 16.5C15.625 15.5386 15.2433 14.6163 14.5635 13.9365C13.8837 13.2567 12.9614 12.875 12 12.875C10.5745 12.875 9.20723 12.3088 8.19922 11.3008C7.19121 10.2928 6.625 8.92554 6.625 7.5C6.625 6.85468 6.74139 6.22144 6.96191 5.62793ZM12 6.125C11.2406 6.125 10.625 6.74061 10.625 7.5C10.625 8.25939 11.2406 8.875 12 8.875C12.7594 8.875 13.375 8.25939 13.375 7.5C13.375 6.74061 12.7594 6.125 12 6.125Z" fill="#959BA0"/>
</svg>
