<svg width="24" height="24" viewBox="0 0 24 24" fill="none" xmlns="http://www.w3.org/2000/svg">
<path fill-rule="evenodd" clip-rule="evenodd" d="M12.0001 4.125C13.0342 4.12503 14.0584 4.32888 15.0138 4.72461C15.9691 5.12036 16.8373 5.70045 17.5685 6.43164C18.2997 7.16285 18.8798 8.03097 19.2755 8.98633C19.6713 9.94174 19.8751 10.9659 19.8751 12C19.8751 12.4294 19.8372 12.8566 19.7677 13.2783C20.7752 14.2508 21.5903 15.1864 22.1271 16.0215C22.4254 16.4856 22.6617 16.955 22.7834 17.4092C22.9038 17.8596 22.9345 18.3877 22.6886 18.875L22.6867 18.8779C22.2576 19.718 21.3237 19.888 20.589 19.875C19.795 19.8608 18.8243 19.639 17.7697 19.2793C17.2716 19.1094 16.7429 18.9027 16.1886 18.665C15.8151 18.8998 15.4233 19.1058 15.0138 19.2754C14.0584 19.6711 13.0342 19.875 12.0001 19.875C10.9661 19.875 9.94186 19.6711 8.98648 19.2754C8.03112 18.8797 7.163 18.2995 6.43179 17.5684C5.70057 16.8371 5.12051 15.969 4.72476 15.0137C4.329 14.0582 4.12515 13.0342 4.12515 12C4.12515 11.57 4.16196 11.142 4.23159 10.7197C3.93762 10.4358 3.66062 10.1578 3.40444 9.88477C2.60431 9.03208 1.9653 8.20753 1.57339 7.46582C1.21525 6.78796 0.916353 5.90018 1.31265 5.12207L1.37027 5.01953C1.67026 4.52641 2.18102 4.3104 2.6271 4.22559C3.10649 4.13455 3.65906 4.16058 4.22183 4.24707C5.24512 4.40443 6.49222 4.79377 7.80679 5.33691C8.18154 5.10108 8.57545 4.89487 8.98648 4.72461C9.94186 4.32891 10.9661 4.125 12.0001 4.125ZM5.87905 12.2002C5.90308 12.9362 6.0588 13.6624 6.34097 14.3438C6.64878 15.0868 7.10035 15.7623 7.66909 16.3311C8.23783 16.8998 8.91333 17.3514 9.6564 17.6592C10.3994 17.9669 11.196 18.125 12.0001 18.125C12.7479 18.125 13.4881 17.9863 14.1857 17.7197C12.9085 17.0644 11.5512 16.2757 10.174 15.375C8.59101 14.3393 7.13549 13.2566 5.87905 12.2002ZM19.1984 15.1865C18.8368 16.0033 18.3394 16.7517 17.7267 17.4014C17.9356 17.4811 18.1383 17.5559 18.3351 17.623C19.3164 17.9577 20.0883 18.1154 20.6193 18.125C20.9264 18.1305 21.0671 18.0872 21.1232 18.0615C21.1236 18.026 21.1197 17.9625 21.0929 17.8623C21.0355 17.6476 20.9002 17.3487 20.6554 16.9678C20.323 16.4506 19.8316 15.8486 19.1984 15.1865ZM12.0001 5.875C11.196 5.875 10.3994 6.03315 9.6564 6.34082C8.91333 6.64861 8.23783 7.10024 7.66909 7.66895C7.10035 8.23768 6.64878 8.91316 6.34097 9.65625C6.27626 9.81249 6.21854 9.97129 6.16714 10.1318C7.52442 11.3525 9.22103 12.6598 11.132 13.9102C12.8427 15.0291 14.4994 15.9547 15.9796 16.6523C16.1001 16.5493 16.2188 16.4435 16.3312 16.3311C16.8999 15.7623 17.3515 15.0868 17.6593 14.3438C17.7847 14.0409 17.883 13.7286 17.9582 13.4111C17.9615 13.3942 17.9646 13.3771 17.9689 13.3604L18.007 13.1953C18.085 12.8026 18.1251 12.4023 18.1251 12C18.1251 11.1958 17.967 10.3993 17.6593 9.65625C17.3515 8.91318 16.8999 8.23768 16.3312 7.66895C15.7625 7.10024 15.0869 6.64863 14.3439 6.34082C13.6009 6.03312 12.8043 5.87503 12.0001 5.875ZM3.9562 5.97754C3.48632 5.90531 3.15564 5.90688 2.95327 5.94531C2.92292 5.95112 2.89838 5.9584 2.87905 5.96387C2.88421 6.05455 2.91764 6.2649 3.12027 6.64844C3.40894 7.19476 3.93089 7.88935 4.67984 8.6875C4.71934 8.7296 4.76034 8.77099 4.80093 8.81348C5.15975 8.00283 5.65156 7.25857 6.25796 6.6123C5.3769 6.29181 4.59034 6.07507 3.9562 5.97754Z" fill="#959BA0"/>
</svg>
